<?xml version="1.0" encoding="UTF-8"?>
<svg width="30.537mm" height="4.2416mm" version="1.1" viewBox="0 0 30.537 4.2416" xmlns="http://www.w3.org/2000/svg"><g transform="translate(-17.219 -21.175)"><g transform="scale(.26458)" style="font-feature-settings:normal;font-variant-caps:small-caps;font-variant-ligatures:normal;font-variant-numeric:normal" aria-label="Soque River ~~ Co-op ~~"><path d="m65.079 90.812q0.23438-1.2188 1.125-2.1445 0.89062-0.92578 1.9453-0.92578 0.77344 0 1.8047 0.76172 1.0781 0.79688 1.7227 0.79688 0.62109 0 1.3125-0.39844 0.70312-0.39844 1.0664-1.207 0.29297 0 0.41016 0.14062-0.33984 1.1719-0.96094 1.875-0.62109 0.69141-1.0664 0.85547-0.44531 0.15234-0.85547 0.15234-0.77344 0-1.8164-0.79688-1.0312-0.77344-1.7578-0.76172-0.64453 0-1.3828 0.49219-0.72656 0.49219-1.1367 1.2539-0.22266 0-0.41016-0.09375z" fill="#81a1c1"/><path d="m75.86 90.812q0.23438-1.2188 1.125-2.1445 0.89062-0.92578 1.9453-0.92578 0.77344 0 1.8047 0.76172 1.0781 0.79688 1.7227 0.79688 0.62109 0 1.3125-0.39844 0.70312-0.39844 1.0664-1.207 0.29297 0 0.41016 0.14062-0.33984 1.1719-0.96094 1.875-0.62109 0.69141-1.0664 0.85547-0.44531 0.15234-0.85547 0.15234-0.77344 0-1.8164-0.79688-1.0312-0.77344-1.7578-0.76172-0.64453 0-1.3828 0.49219-0.72656 0.49219-1.1367 1.2539-0.22266 0-0.41016-0.09375z" fill="#81a1c1"/><path d="m100.59 96.062q-3.6914 0-5.6836-2.1797t-1.9922-5.4961q0-1.875 0.66797-3.5391t1.875-2.7773q2.2266-2.0391 5.1562-2.0391 1.7227 0 3.3633 0.53906 1.6524 0.52734 1.8984 0.55078 0.36328 1.9922 0.52734 3.7148-0.45703 0.23438-0.79687 0.11719-1.2188-4.0312-5.25-4.0312-2.0977 0-3.832 2.1328-1.4297 1.7578-1.4297 4.875 0 2.7656 1.5703 4.9688 1.5703 2.1914 3.9023 2.1914 1.6758 0 2.9883-0.60938 1.3125-0.62109 2.5781-2.0156 0.36328 0 0.55078 0.36328-2.4726 3.2344-6.0938 3.2344z" style="font-feature-settings:normal;font-variant-caps:small-caps;font-variant-ligatures:normal;font-variant-numeric:normal"/><path d="m114.11 85.339q-1.4648 0-2.5312 1.2891-1.0664 1.2773-1.0664 3.5859 0 2.2031 1.1133 3.6328t2.8711 1.4297q1.6289 0 2.6133-1.2773 0.98438-1.2891 0.98438-3.4805 0-2.332-1.1719-3.75-1.1602-1.4297-2.8125-1.4297zm6.0703 4.8516q0 2.4727-1.6055 4.1719t-4.4414 1.6992q-2.4492 0-4.0781-1.5703t-1.6289-3.9961q0-2.6133 1.6875-4.2773 1.6992-1.6758 4.2188-1.6758 2.4258 0 4.1367 1.582 1.7109 1.5703 1.7109 4.0664z" style="font-feature-settings:normal;font-variant-caps:small-caps;font-variant-ligatures:normal;font-variant-numeric:normal"/><path d="m127.54 90.472h-5.1797q-0.36328 0-0.36328-0.45703 0-0.33984 0.1875-0.65625 0.19922-0.32812 0.41016-0.32812h5.2617q0.33984 0 0.32812 0.48047 0 0.23438-0.22266 0.59766-0.21093 0.36328-0.42187 0.36328z" fill="#81a1c1"/><path d="m135.72 85.339q-1.4648 0-2.5312 1.2891-1.0664 1.2773-1.0664 3.5859 0 2.2031 1.1133 3.6328t2.8711 1.4297q1.6289 0 2.6133-1.2773 0.98437-1.2891 0.98437-3.4805 0-2.332-1.1719-3.75-1.1602-1.4297-2.8125-1.4297zm6.0703 4.8516q0 2.4727-1.6055 4.1719t-4.4414 1.6992q-2.4492 0-4.0781-1.5703t-1.6289-3.9961q0-2.6133 1.6875-4.2773 1.6992-1.6758 4.2188-1.6758 2.4258 0 4.1367 1.582 1.7109 1.5703 1.7109 4.0664z" style="font-feature-settings:normal;font-variant-caps:small-caps;font-variant-ligatures:normal;font-variant-numeric:normal"/><path d="m147.18 86.617v3.7383q0.66797 0.26953 1.5586 0.26953 2.0625 0 2.0625-2.6719 0-2.4258-2.1797-2.4258-0.84375 0-1.1484 0.24609-0.29297 0.24609-0.29297 0.84375zm0 6.2812q0 1.4414 0.28125 1.7812 0.29297 0.32812 1.4531 0.41016 0.11719 0.11719 0.11719 0.41016 0 0.28125-0.11719 0.375-1.582-0.04687-2.6719-0.04687-1.1016 0-2.6836 0.04687-0.0937-0.09375-0.0937-0.375 0-0.29297 0.0937-0.41016 1.1484-0.09375 1.4297-0.42188 0.29297-0.32812 0.29297-1.7695v-5.1797q0-1.4414-0.29297-1.7695-0.28125-0.33984-1.4297-0.42188-0.0937-0.11719-0.0937-0.39844 0-0.29297 0.0937-0.38672 1.9219 0.04687 2.6602 0.04687 0.29297 0 1.1719-0.02344 0.89063-0.02344 1.3711-0.02344 2.3086 0 3.2109 0.87891 0.91407 0.86719 0.91407 2.0508 0 1.3711-1.0195 2.5547t-3.1758 1.1836q-0.86718 0-1.5117-0.28125z" style="font-feature-settings:normal;font-variant-caps:small-caps;font-variant-ligatures:normal;font-variant-numeric:normal"/><path d="m160.33 90.812q0.23438-1.2188 1.125-2.1445 0.89063-0.92578 1.9453-0.92578 0.77344 0 1.8047 0.76172 1.0781 0.79688 1.7227 0.79688 0.62109 0 1.3125-0.39844 0.70312-0.39844 1.0664-1.207 0.29297 0 0.41016 0.14062-0.33984 1.1719-0.96094 1.875-0.62109 0.69141-1.0664 0.85547-0.44532 0.15234-0.85547 0.15234-0.77344 0-1.8164-0.79688-1.0312-0.77344-1.7578-0.76172-0.64453 0-1.3828 0.49219-0.72657 0.49219-1.1367 1.2539-0.22266 0-0.41016-0.09375z" fill="#81a1c1"/><path d="m171.11 90.812q0.23438-1.2188 1.125-2.1445 0.89063-0.92578 1.9453-0.92578 0.77344 0 1.8047 0.76172 1.0781 0.79688 1.7227 0.79688 0.62109 0 1.3125-0.39844 0.70312-0.39844 1.0664-1.207 0.29297 0 0.41016 0.14062-0.33984 1.1719-0.96094 1.875-0.62109 0.69141-1.0664 0.85547-0.44532 0.15234-0.85547 0.15234-0.77344 0-1.8164-0.79688-1.0312-0.77344-1.7578-0.76172-0.64453 0-1.3828 0.49219-0.72657 0.49219-1.1367 1.2539-0.22266 0-0.41016-0.09375z" fill="#81a1c1"/></g></g></svg>
